PathFileType	4	(X/Y/Z)	..\data\2015032\dynamic\2015032_C4_03.trc
DataRate	CameraRate	NumFrames	NumMarkers	Units	OrigDataRate	OrigDataStartFrame	OrigNumFrames
100.000000	100.000000	4	48	mm	100.000000	152	203
Frame#	Time	L_IAS			L_IPS			R_IPS			R_IAS			L_FTC			L_FLE			L_FAX			L_TTC			L_FAL			L_FCC			L_FM1			L_FM2			L_FM5			R_FTC			R_FLE			R_FAX			R_TTC			R_FAL			R_FCC			R_FM1			R_FM2			R_FM5			CV7			TV10			SXS			SJN			L_SIA			L_SRS			L_SAA			L_SAE			L_HLE			L_HME			L_UOA			L_RSP			L_UHE			L_HM2			L_HM5			R_SIA			R_SRS			R_SAA			R_SAE			R_HLE			R_HME			R_UOA			R_RSP			R_UHE			R_HM2			R_HM5			
		X1	Y1	Z1	X2	Y2	Z2	X3	Y3	Z3	X4	Y4	Z4	X5	Y5	Z5	X6	Y6	Z6	X7	Y7	Z7	X8	Y8	Z8	X9	Y9	Z9	X10	Y10	Z10	X11	Y11	Z11	X12	Y12	Z12	X13	Y13	Z13	X14	Y14	Z14	X15	Y15	Z15	X16	Y16	Z16	X17	Y17	Z17	X18	Y18	Z18	X19	Y19	Z19	X20	Y20	Z20	X21	Y21	Z21	X22	Y22	Z22	X23	Y23	Z23	X24	Y24	Z24	X25	Y25	Z25	X26	Y26	Z26	X27	Y27	Z27	X28	Y28	Z28	X29	Y29	Z29	X30	Y30	Z30	X31	Y31	Z31	X32	Y32	Z32	X33	Y33	Z33	X34	Y34	Z34	X35	Y35	Z35	X36	Y36	Z36	X37	Y37	Z37	X38	Y38	Z38	X39	Y39	Z39	X40	Y40	Z40	X41	Y41	Z41	X42	Y42	Z42	X43	Y43	Z43	X44	Y44	Z44	X45	Y45	Z45	X46	Y46	Z46	X47	Y47	Z47	X48	Y48	Z48	

153	1.52	1053.435424804688	927.2454833984377	-352.0738220214844	904.1737060546877	944.6665039062502	-275.9000549316407	907.8137207031252	950.4193115234377	-167.879150390625	1069.581909179688	944.3160400390627	-117.6702270507813	979.0469970703127	853.507995605469	-397.0407104492189	932.080261230469	443.2716064453126	-354.9305419921876	896.2027587890627	396.5602111816407	-357.2635803222657	948.6516113281252	351.7875061035157	-320.2058410644532	676.5424804687501	148.4584197998047	-299.6204528808594	625.8867187500001	142.4520721435547	-246.7740783691407	775.8864746093752	33.96763992309571	-236.4909820556641	768.266296386719	33.00372695922852	-291.4322204589844	722.7595825195314	35.19149017333985	-327.6129150390626	984.5336914062502	854.7766723632815	-55.63366699218751	1088.979125976563	447.452362060547	-95.87686920166017	1090.011840820313	393.0715637207032	-98.40080261230472	1140.978759765625	393.0469055175782	-160.5412139892578	1070.268432617188	59.02254486083986	-160.7297973632813	1038.651489257813	20.3155632019043	-221.3557434082032	1234.203979492188	30.23278999328614	-202.2887573242188	1223.901245117188	37.94236755371094	-147.9027252197266	1169.0966796875	23.37823295593262	-106.6464614868164	913.3279418945315	1431.753051757813	-219.1534576416016	859.8762817382815	1202.44970703125	-226.3760375976563	1041.535278320313	1177.6943359375	-227.0844879150391	1011.525695800781	1342.812255859375	-215.6328735351563	844.3928222656252	1238.96728515625	-343.6907653808594	872.616149902344	1362.652221679688	-328.8428344726563	953.9575195312502	1376.303588867188	-408.5673828125001	1000.813537597656	1375.73779296875	-409.230438232422	1003.62255859375	1066.25390625	-457.3899536132814	954.2978515625002	1049.846923828125	-396.2664794921876	964.7720947265627	1026.505249023438	-438.5179443359376	1128.39208984375	853.9771728515627	-386.603485107422	1092.200439453125	847.5720214843752	-453.8275756835939	1163.131713867188	777.908874511719	-377.6986389160157	1095.750854492188	771.0645751953127	-453.554901123047	835.8894653320315	1231.674438476563	-114.1513214111328	862.5521240234377	1351.191650390625	-123.753890991211	922.1621704101565	1356.151733398438	-31.07413864135743	966.5850830078127	1357.271484375	-15.27147197723389	919.415466308594	1047.604858398438	-2.135797739028931	903.282897949219	1045.215942382813	-73.74134063720705	887.2536621093752	1023.044250488281	-33.23183059692384	1009.793029785156	813.1994628906252	-35.60450744628907	952.445251464844	812.5740356445315	13.49951171875	1030.086669921875	726.0004272460939	-27.36790657043458	939.3454589843752	739.2572021484376	14.97815418243409	
154	1.53	1060.281616210938	927.4573364257815	-351.0245056152344	911.345153808594	944.8327636718752	-274.4649963378907	915.502868652344	950.8521728515627	-166.471176147461	1077.512451171875	944.613220214844	-116.7476043701172	986.340270996094	853.4307861328127	-395.487518310547	948.5181884765627	442.8382263183595	-355.7922668457032	912.538757324219	396.7870483398439	-358.5184326171876	964.0679931640627	351.1082458496094	-321.5684204101563	685.8828125000001	155.5997619628907	-301.9974365234376	635.1427001953126	151.9837341308594	-248.9759216308594	779.913513183594	36.95211410522462	-238.2447662353516	772.4665527343752	35.44523239135743	-292.7191467285157	727.7379760742189	39.50780105590821	-328.8156738281251	992.4126586914065	855.091735839844	-54.34926605224611	1093.628662109375	447.056610107422	-95.30252838134767	1094.174194335938	392.6999511718751	-97.92686462402347	1144.856567382813	392.3364868164064	-160.3442535400391	1070.945434570313	59.07495498657228	-160.9002227783203	1038.835571289063	20.40513610839844	-221.3600616455079	1234.472290039063	28.80715560913087	-202.8731536865235	1224.554443359375	37.00634384155274	-148.331527709961	1169.399047851563	23.32514190673828	-106.4964370727539	921.0862426757815	1432.066650390625	-217.9645385742188	867.6132812500002	1202.747192382813	-224.7156524658204	1049.250244140625	1178.0322265625	-226.3559112548829	1019.341552734375	1343.180053710938	-214.8959655761719	851.5149536132815	1239.114379882813	-341.9220275878907	879.869567871094	1362.838745117188	-327.3345947265626	960.6773071289065	1376.505126953125	-407.543426513672	1007.539123535156	1375.9052734375	-408.5668945312501	1007.674682617188	1066.280151367188	-456.6836242675782	958.5277099609377	1050.533203125	-395.0860900878907	968.5982666015627	1027.040283203125	-437.4021606445314	1130.649169921875	852.5877075195315	-387.510711669922	1093.784790039063	846.7205200195315	-454.3364257812501	1164.576049804688	775.9842529296877	-379.0188903808594	1096.355834960938	770.1562500000002	-454.2330932617189	844.3021240234377	1232.059936523438	-112.3116531372071	870.874206542969	1351.5771484375	-122.20458984375	931.038757324219	1356.71337890625	-29.79622077941895	975.589294433594	1357.689697265625	-14.15267848968506	928.9169921875002	1048.005493164063	-0.3988095521926881	912.443298339844	1045.326049804688	-71.75881958007814	896.6196289062502	1023.219970703125	-31.33231353759766	1020.48974609375	814.0869140625002	-34.67794799804688	963.5444946289065	813.119812011719	14.7586727142334	1041.612548828125	727.1386718750001	-26.63821411132813	950.9282836914065	739.7404174804689	16.33015060424805	
155	1.54	1066.924682617188	927.6306762695315	-349.9881896972657	918.285827636719	944.9402465820315	-273.0708923339844	922.9787597656252	951.222106933594	-165.0912322998047	1085.243774414063	944.8378906250002	-115.8433227539063	993.4801025390627	853.294372558594	-393.9678955078126	965.221130371094	442.5090332031251	-356.5823059082032	929.220642089844	397.0337524414064	-359.6568603515626	979.820983886719	350.6582641601563	-322.6189270019532	696.0723876953126	162.7138061523438	-304.2425537109376	645.2385864257814	161.1072235107422	-251.0865173339844	785.2339477539065	40.24203872680665	-240.5133819580079	777.9731445312502	38.44256591796876	-294.5325927734376	733.9595947265626	44.54825592041016	-330.5481262207032	1000.139770507813	855.3254394531252	-53.09273147583009	1098.13134765625	446.6469726562501	-94.78817749023439	1098.175170898438	392.309051513672	-97.50517272949222	1148.572387695313	391.6220703125001	-160.1849517822266	1071.536499023438	59.11426544189455	-161.0814514160157	1038.956909179688	20.47394371032715	-221.367416381836	1234.674194335938	27.42144584655762	-203.3948516845704	1225.113647460938	36.14257431030274	-148.6739654541016	1169.617065429688	23.24084091186524	-106.3746032714844	928.8496093750002	1432.3603515625	-216.8058013916016	875.2545166015627	1203.058837890625	-223.0496368408204	1056.838745117188	1178.267578125	-225.6648254394532	1027.102416992188	1343.4677734375	-214.2041015625001	858.4873046875002	1239.239868164063	-340.0978088378907	887.0592041015627	1363.0166015625	-325.8319702148438	967.3184814453127	1376.598754882813	-406.5590209960939	1014.184997558594	1375.9345703125	-407.951873779297	1011.707885742188	1066.21435546875	-456.0362854003907	962.7631835937502	1051.061401367188	-394.0183410644532	972.3903808593752	1027.465942382813	-436.3999023437501	1132.830322265625	851.0997314453127	-388.4800109863282	1095.30615234375	845.7893676757815	-454.9102172851564	1165.961059570313	773.995300292969	-380.4266967773438	1096.929565429688	769.1729736328127	-454.9971008300782	852.638610839844	1232.46533203125	-110.4573974609375	879.1953125000002	1351.985717773438	-120.6499328613282	939.984802246094	1357.2373046875	-28.50395774841309	984.6472778320315	1358.043334960938	-13.05434513092041	938.508728027344	1048.33935546875	1.415912508964539	921.5690917968752	1045.362670898438	-69.69386291503908	906.060241699219	1023.303955078125	-29.31486511230469	1031.330322265625	814.942077636719	-33.74213409423829	974.8624267578127	813.6233520507815	16.0605640411377	1053.3837890625	728.2770996093751	-25.89500999450684	962.7742919921877	740.1710815429689	17.75444030761719	
156	1.55	1073.387939453125	927.7946777343752	-348.9693603515626	925.017517089844	945.0154418945315	-271.7290344238282	930.2569580078127	951.544128417969	-163.7499694824219	1092.783813476563	945.0154418945315	-114.9607696533203	1000.499572753906	853.1384887695315	-392.5067749023439	982.0710449218752	442.3524780273439	-357.2378540039063	946.1090087890627	397.3732910156251	-360.6141357421876	995.820495605469	350.4829101562501	-323.3389892578126	707.1000366210939	169.6599731445313	-306.2988891601563	656.1632080078126	169.5875701904297	-253.0325317382813	792.0137939453127	43.72522735595704	-243.3359527587891	784.940368652344	41.9481315612793	-296.9273071289063	741.5566406250001	50.2308807373047	-332.8406677246094	1007.700317382813	855.5092773437502	-51.87519454956056	1102.48876953125	446.2352294921876	-94.33017730712892	1102.01806640625	391.9092102050782	-97.131462097168	1152.136108398438	390.9168090820314	-160.0530395507813	1072.048461914063	59.14359283447267	-161.2659912109375	1039.026123046875	20.52714729309082	-221.371078491211	1234.819091796875	26.08675765991212	-203.8375854492188	1225.5810546875	35.35557937622071	-148.9108581542969	1169.757568359375	23.1275634765625	-106.2744827270508	936.6057128906252	1432.652099609375	-215.6803131103516	882.7929687500002	1203.401489257813	-221.3834533691407	1064.294311523438	1178.4267578125	-225.0178985595704	1034.797729492188	1343.695190429688	-213.5594940185547	865.3149414062502	1239.3671875	-338.2291870117188	894.1748657226565	1363.204467773438	-324.3413085937501	973.8731689453127	1376.611083984375	-405.6156005859376	1020.742431640625	1375.855224609375	-407.3843078613282	1015.736267089844	1066.084838867188	-455.4343566894532	967.0305175781252	1051.450317382813	-393.0526733398439	976.163513183594	1027.808837890625	-435.4993896484376	1134.939331054688	849.5283203125002	-389.4914855957032	1096.770751953125	844.8027343750002	-455.540496826172	1167.280029296875	771.9590454101565	-381.9090270996094	1097.476318359375	768.1406250000002	-455.8446044921876	860.8875122070315	1232.910766601563	-108.596435546875	887.5000000000002	1352.43408203125	-119.0982131958008	948.9832153320315	1357.736938476563	-27.20228004455567	993.7346801757815	1358.36328125	-11.994140625	948.2055664062502	1048.628173828125	3.29264783859253	930.6657714843752	1045.351928710938	-67.56182861328126	915.5885009765627	1023.321228027344	-27.18876647949219	1042.2958984375	815.779235839844	-32.80876922607423	986.3835449218752	814.107116699219	17.4023494720459	1065.355590820313	729.4163818359376	-25.14775466918946	974.8582763671877	740.5734863281251	19.25362586975098	
